  0
SECTION
  2
HEADER
  9
$ACADVER
  1
AC1009
  9
$LUNITS
 70
2
  9
$LUPREC
 70
4
  9
$LTSCALE
 40
1.0
  9
$EXTMIN
 10
4.9219
 20
185.9131
 30
0
  9
$EXTMAX
 10
94.9378
 20
281.9132
 30
0
  0
ENDSEC
  0
SECTION
  2
TABLES
  0
TABLE
  2
LTYPE
 70
256
  0
ENDTAB
  0
TABLE
  2
LAYER
 70
1
  0
LAYER
  2
LAYER_1
 70
64
 62
7
  6
CONTINUOUS
  0
ENDTAB
  0
TABLE
  2
STYLE
 70
6
  0
STYLE
  2
STANDARD
 70
0
 40
0
 50
0
 71
0
 41
0
 42
0
  3
TXT
  4
BIGFONT
  0
ENDTAB
  0
ENDSEC
  0
SECTION
  2
BLOCKS
  0
BLOCK
  8
LAYER_1
  2
AIGNBL01020004
 70
64
 10
0
 20
0
 30
0
  3
AIGNBL01020004
  0
POLYLINE
  8
LAYER_1
 40
0.0353
 41
0.0353
 66
1
 10
0
 20
0
 30
0
  0
VERTEX
  8
LAYER_1
 10
92.1758
 20
233.5044
  0
VERTEX
  8
LAYER_1
 10
92.3846
 20
233.5157
  0
VERTEX
  8
LAYER_1
 10
92.5216
 20
233.5353
  0
VERTEX
  8
LAYER_1
 10
92.6568
 20
233.5642
  0
VERTEX
  8
LAYER_1
 10
92.7898
 20
233.602
  0
VERTEX
  8
LAYER_1
 10
92.9206
 20
233.6484
  0
VERTEX
  8
LAYER_1
 10
93.0489
 20
233.703
  0
VERTEX
  8
LAYER_1
 10
93.1746
 20
233.7655
  0
VERTEX
  8
LAYER_1
 10
93.2974
 20
233.8354
  0
VERTEX
  8
LAYER_1
 10
93.4173
 20
233.9124
  0
VERTEX
  8
LAYER_1
 10
93.5339
 20
233.9962
  0
VERTEX
  8
LAYER_1
 10
93.6472
 20
234.0864
  0
VERTEX
  8
LAYER_1
 10
93.7569
 20
234.1827
  0
VERTEX
  8
LAYER_1
 10
93.8628
 20
234.2846
  0
VERTEX
  8
LAYER_1
 10
94.0143
 20
234.4473
  0
VERTEX
  8
LAYER_1
 10
94.1101
 20
234.5619
  0
VERTEX
  8
LAYER_1
 10
94.2456
 20
234.7418
  0
VERTEX
  8
LAYER_1
 10
94.33
 20
234.8668
  0
VERTEX
  8
LAYER_1
 10
94.4476
 20
235.0606
  0
VERTEX
  8
LAYER_1
 10
94.5197
 20
235.1936
  0
VERTEX
  8
LAYER_1
 10
94.6177
 20
235.398
  0
VERTEX
  8
LAYER_1
 10
94.6762
 20
235.5369
  0
VERTEX
  8
LAYER_1
 10
94.753
 20
235.7483
  0
VERTEX
  8
LAYER_1
 10
94.7967
 20
235.8908
  0
VERTEX
  8
LAYER_1
 10
94.8505
 20
236.106
  0
VERTEX
  8
LAYER_1
 10
94.8783
 20
236.2499
  0
VERTEX
  8
LAYER_1
 10
94.9074
 20
236.4654
  0
VERTEX
  8
LAYER_1
 10
94.9182
 20
236.6084
  0
VERTEX
  8
LAYER_1
 10
94.9218
 20
236.7504
  0
VERTEX
  8
LAYER_1
 10
94.9218
 20
247.5954
  0
VERTEX
  8
LAYER_1
 10
94.9115
 20
247.6776
  0
VERTEX
  8
LAYER_1
 10
94.894
 20
247.7295
  0
VERTEX
  8
LAYER_1
 10
94.8615
 20
247.7912
  0
VERTEX
  8
LAYER_1
 10
94.8185
 20
247.8498
  0
VERTEX
  8
LAYER_1
 10
94.7666
 20
247.9053
  0
VERTEX
  8
LAYER_1
 10
94.6947
 20
247.9684
  0
VERTEX
  8
LAYER_1
 10
94.6007
 20
248.0374
  0
VERTEX
  8
LAYER_1
 10
94.4702
 20
248.12
  0
VERTEX
  8
LAYER_1
 10
94.2649
 20
248.2375
  0
VERTEX
  8
LAYER_1
 10
94.2232
 20
248.2614
  0
VERTEX
  8
LAYER_1
 10
94.1388
 20
248.3223
  0
VERTEX
  8
LAYER_1
 10
94.0966
 20
248.3638
  0
VERTEX
  8
LAYER_1
 10
94.041
 20
248.4338
  0
VERTEX
  8
LAYER_1
 10
94.0014
 20
248.4983
  0
VERTEX
  8
LAYER_1
 10
93.9614
 20
248.5815
  0
VERTEX
  8
LAYER_1
 10
93.9291
 20
248.6695
  0
VERTEX
  8
LAYER_1
 10
93.9004
 20
248.7759
  0
VERTEX
  8
LAYER_1
 10
93.8806
 20
248.8838
  0
VERTEX
  8
LAYER_1
 10
93.8675
 20
249.0055
  0
VERTEX
  8
LAYER_1
 10
93.8635
 20
249.1217
  0
VERTEX
  8
LAYER_1
 10
93.8635
 20
263.6008
  0
VERTEX
  8
LAYER_1
 10
93.873
 20
263.723
  0
VERTEX
  8
LAYER_1
 10
93.8879
 20
263.7984
  0
VERTEX
  8
LAYER_1
 10
93.9187
 20
263.8994
  0
VERTEX
  8
LAYER_1
 10
93.956
 20
263.9863
  0
VERTEX
  8
LAYER_1
 10
94.0031
 20
264.0699
  0
VERTEX
  8
LAYER_1
 10
94.0513
 20
264.1378
  0
VERTEX
  8
LAYER_1
 10
94.1069
 20
264.2011
  0
VERTEX
  8
LAYER_1
 10
94.1698
 20
264.2586
  0
VERTEX
  8
LAYER_1
 10
94.2402
 20
264.3093
  0
VERTEX
  8
LAYER_1
 10
94.2654
 20
264.3245
  0
VERTEX
  8
LAYER_1
 10
94.4577
 20
264.4233
  0
VERTEX
  8
LAYER_1
 10
94.7866
 20
264.6016
  0
VERTEX
  8
LAYER_1
 10
94.8276
 20
264.6339
  0
VERTEX
  8
LAYER_1
 10
94.8789
 20
264.6857
  0
VERTEX
  8
LAYER_1
 10
94.9106
 20
264.7326
  0
VERTEX
  8
LAYER_1
 10
94.9277
 20
264.773
  0
VERTEX
  8
LAYER_1
 10
94.9366
 20
264.8161
  0
VERTEX
  8
LAYER_1
 10
94.9378
 20
264.8388
  0
VERTEX
  8
LAYER_1
 10
94.9219
 20
277.9132
  0
VERTEX
  8
LAYER_1
 10
94.9105
 20
278.226
  0
VERTEX
  8
LAYER_1
 10
94.9017
 20
278.3287
  0
VERTEX
  8
LAYER_1
 10
94.8767
 20
278.5315
  0
VERTEX
  8
LAYER_1
 10
94.8422
 20
278.7307
  0
VERTEX
  8
LAYER_1
 10
94.7984
 20
278.9261
  0
VERTEX
  8
LAYER_1
 10
94.7454
 20
279.1174
  0
VERTEX
  8
LAYER_1
 10
94.6835
 20
279.3044
  0
VERTEX
  8
LAYER_1
 10
94.613
 20
279.4869
  0
VERTEX
  8
LAYER_1
 10
94.534
 20
279.6647
  0
VERTEX
  8
LAYER_1
 10
94.4469
 20
279.8374
  0
VERTEX
  8
LAYER_1
 10
94.3518
 20
280.005
  0
VERTEX
  8
LAYER_1
 10
94.2489
 20
280.1671
  0
VERTEX
  8
LAYER_1
 10
94.1386
 20
280.3235
  0
VERTEX
  8
LAYER_1
 10
94.0209
 20
280.474
  0
VERTEX
  8
LAYER_1
 10
93.8963
 20
280.6185
  0
VERTEX
  8
LAYER_1
 10
93.7648
 20
280.7565
  0
VERTEX
  8
LAYER_1
 10
93.6267
 20
280.888
  0
VERTEX
  8
LAYER_1
 10
93.4823
 20
281.0126
  0
VERTEX
  8
LAYER_1
 10
93.3317
 20
281.1302
  0
VERTEX
  8
LAYER_1
 10
93.1753
 20
281.2405
  0
VERTEX
  8
LAYER_1
 10
93.0132
 20
281.3433
  0
VERTEX
  8
LAYER_1
 10
92.8456
 20
281.4384
  0
VERTEX
  8
LAYER_1
 10
92.6729
 20
281.5255
  0
VERTEX
  8
LAYER_1
 10
92.4951
 20
281.6044
  0
VERTEX
  8
LAYER_1
 10
92.3127
 20
281.6749
  0
VERTEX
  8
LAYER_1
 10
92.1257
 20
281.7368
  0
VERTEX
  8
LAYER_1
 10
91.9344
 20
281.7897
  0
VERTEX
  8
LAYER_1
 10
91.7391
 20
281.8336
  0
VERTEX
  8
LAYER_1
 10
91.54
 20
281.8681
  0
VERTEX
  8
LAYER_1
 10
91.3372
 20
281.893
  0
VERTEX
  8
LAYER_1
 10
91.1311
 20
281.9081
  0
VERTEX
  8
LAYER_1
 10
90.9219
 20
281.9132
  0
VERTEX
  8
LAYER_1
 10
79.8148
 20
281.9132
  0
VERTEX
  8
LAYER_1
 10
79.5856
 20
281.9009
  0
VERTEX
  8
LAYER_1
 10
79.4974
 20
281.8892
  0
VERTEX
  8
LAYER_1
 10
79.369
 20
281.8646
  0
VERTEX
  8
LAYER_1
 10
79.2455
 20
281.8318
  0
VERTEX
  8
LAYER_1
 10
79.1272
 20
281.7909
  0
VERTEX
  8
LAYER_1
 10
79.0142
 20
281.7422
  0
VERTEX
  8
LAYER_1
 10
78.9069
 20
281.6859
  0
VERTEX
  8
LAYER_1
 10
78.8054
 20
281.6222
  0
VERTEX
  8
LAYER_1
 10
78.71
 20
281.5514
  0
VERTEX
  8
LAYER_1
 10
78.6209
 20
281.4736
  0
VERTEX
  8
LAYER_1
 10
78.5383
 20
281.389
  0
VERTEX
  8
LAYER_1
 10
78.4625
 20
281.298
  0
VERTEX
  8
LAYER_1
 10
78.3936
 20
281.2006
  0
VERTEX
  8
LAYER_1
 10
78.3321
 20
281.0972
  0
VERTEX
  8
LAYER_1
 10
78.2779
 20
280.9879
  0
VERTEX
  8
LAYER_1
 10
78.2315
 20
280.873
  0
VERTEX
  8
LAYER_1
 10
78.193
 20
280.7526
  0
VERTEX
  8
LAYER_1
 10
78.1626
 20
280.627
  0
VERTEX
  8
LAYER_1
 10
78.1407
 20
280.4964
  0
VERTEX
  8
LAYER_1
 10
78.1273
 20
280.3611
  0
VERTEX
  8
LAYER_1
 10
78.1228
 20
280.2212
  0
VERTEX
  8
LAYER_1
 10
78.1228
 20
274.7263
  0
VERTEX
  8
LAYER_1
 10
78.1137
 20
274.5902
  0
VERTEX
  8
LAYER_1
 10
78.0978
 20
274.5042
  0
VERTEX
  8
LAYER_1
 10
78.0743
 20
274.4222
  0
VERTEX
  8
LAYER_1
 10
78.0437
 20
274.3446
  0
VERTEX
  8
LAYER_1
 10
78.0061
 20
274.2718
  0
VERTEX
  8
LAYER_1
 10
77.9619
 20
274.204
  0
VERTEX
  8
LAYER_1
 10
77.9114
 20
274.1415
  0
VERTEX
  8
LAYER_1
 10
77.8548
 20
274.0847
  0
VERTEX
  8
LAYER_1
 10
77.7925
 20
274.0339
  0
VERTEX
  8
LAYER_1
 10
77.7247
 20
273.9895
  0
VERTEX
  8
LAYER_1
 10
77.6518
 20
273.9516
  0
VERTEX
  8
LAYER_1
 10
77.574
 20
273.9207
  0
VERTEX
  8
LAYER_1
 10
77.4917
 20
273.897
  0
VERTEX
  8
LAYER_1
 10
77.4051
 20
273.8809
  0
VERTEX
  8
LAYER_1
 10
77.3145
 20
273.8727
  0
VERTEX
  8
LAYER_1
 10
77.2678
 20
273.8717
  0
VERTEX
  8
LAYER_1
 10
68.5698
 20
273.8717
  0
VERTEX
  8
LAYER_1
 10
68.4336
 20
273.8807
  0
VERTEX
  8
LAYER_1
 10
68.3475
 20
273.8965
  0
VERTEX
  8
LAYER_1
 10
68.2655
 20
273.9198
  0
VERTEX
  8
LAYER_1
 10
68.1879
 20
273.9502
  0
VERTEX
  8
LAYER_1
 10
68.1151
 20
273.9876
  0
VERTEX
  8
LAYER_1
 10
68.0474
 20
274.0316
  0
VERTEX
  8
LAYER_1
 10
67.985
 20
274.0819
  0
VERTEX
  8
LAYER_1
 10
67.9283
 20
274.1383
  0
VERTEX
  8
LAYER_1
 10
67.8776
 20
274.2004
  0
VERTEX
  8
LAYER_1
 10
67.8332
 20
274.2681
  0
VERTEX
  8
LAYER_1
 10
67.7955
 20
274.3409
  0
VERTEX
  8
LAYER_1
 10
67.7646
 20
274.4187
  0
VERTEX
  8
LAYER_1
 10
67.741
 20
274.5011
  0
VERTEX
  8
LAYER_1
 10
67.725
 20
274.5879
  0
VERTEX
  8
LAYER_1
 10
67.7168
 20
274.6787
  0
VERTEX
  8
LAYER_1
 10
67.7158
 20
274.7256
  0
VERTEX
  8
LAYER_1
 10
67.7158
 20
280.2212
  0
VERTEX
  8
LAYER_1
 10
67.7078
 20
280.4057
  0
VERTEX
  8
LAYER_1
 10
67.6914
 20
280.5388
  0
VERTEX
  8
LAYER_1
 10
67.6664
 20
280.6673
  0
VERTEX
  8
LAYER_1
 10
67.6331
 20
280.7908
  0
VERTEX
  8
LAYER_1
 10
67.5917
 20
280.9091
  0
VERTEX
  8
LAYER_1
 10
67.5424
 20
281.0221
  0
VERTEX
  8
LAYER_1
 10
67.4854
 20
281.1294
  0
VERTEX
  8
LAYER_1
 10
67.4211
 20
281.2309
  0
VERTEX
  8
LAYER_1
 10
67.3497
 20
281.3263
  0
VERTEX
  8
LAYER_1
 10
67.2714
 20
281.4154
  0
VERTEX
  8
LAYER_1
 10
67.1864
 20
281.498
  0
VERTEX
  8
LAYER_1
 10
67.095
 20
281.5738
  0
VERTEX
  8
LAYER_1
 10
66.9974
 20
281.6426
  0
VERTEX
  8
LAYER_1
 10
66.8939
 20
281.7041
  0
VERTEX
  8
LAYER_1
 10
66.7847
 20
281.7582
  0
VERTEX
  8
LAYER_1
 10
66.6701
 20
281.8046
  0
VERTEX
  8
LAYER_1
 10
66.5502
 20
281.8431
  0
VERTEX
  8
LAYER_1
 10
66.4255
 20
281.8734
  0
VERTEX
  8
LAYER_1
 10
66.296
 20
281.8954
  0
VERTEX
  8
LAYER_1
 10
66.162
 20
281.9087
  0
VERTEX
  8
LAYER_1
 10
66.0238
 20
281.9132
  0
VERTEX
  8
LAYER_1
 10
8.9219
 20
281.9132
  0
VERTEX
  8
LAYER_1
 10
8.6087
 20
281.9018
  0
VERTEX
  8
LAYER_1
 10
8.5059
 20
281.893
  0
VERTEX
  8
LAYER_1
 10
8.3029
 20
281.8681
  0
VERTEX
  8
LAYER_1
 10
8.1035
 20
281.8337
  0
VERTEX
  8
LAYER_1
 10
7.908
 20
281.7899
  0
VERTEX
  8
LAYER_1
 10
7.7165
 20
281.737
  0
VERTEX
  8
LAYER_1
 10
7.5294
 20
281.6753
  0
VERTEX
  8
LAYER_1
 10
7.3469
 20
281.6049
  0
VERTEX
  8
LAYER_1
 10
7.1691
 20
281.526
  0
VERTEX
  8
LAYER_1
 10
6.9963
 20
281.439
  0
VERTEX
  8
LAYER_1
 10
6.8288
 20
281.344
  0
VERTEX
  8
LAYER_1
 10
6.6667
 20
281.2413
  0
VERTEX
  8
LAYER_1
 10
6.5103
 20
281.1311
  0
VERTEX
  8
LAYER_1
 10
6.3598
 20
281.0136
  0
VERTEX
  8
LAYER_1
 10
6.2154
 20
280.889
  0
VERTEX
  8
LAYER_1
 10
6.0774
 20
280.7576
  0
VERTEX
  8
LAYER_1
 10
5.9461
 20
280.6196
  0
VERTEX
  8
LAYER_1
 10
5.8215
 20
280.4753
  0
VERTEX
  8
LAYER_1
 10
5.704
 20
280.3248
  0
VERTEX
  8
LAYER_1
 10
5.5938
 20
280.1684
  0
VERTEX
  8
LAYER_1
 10
5.491
 20
280.0063
  0
VERTEX
  8
LAYER_1
 10
5.3961
 20
279.8387
  0
VERTEX
  8
LAYER_1
 10
5.309
 20
279.666
  0
VERTEX
  8
LAYER_1
 10
5.2302
 20
279.4882
  0
VERTEX
  8
LAYER_1
 10
5.1598
 20
279.3056
  0
VERTEX
  8
LAYER_1
 10
5.0981
 20
279.1185
  0
VERTEX
  8
LAYER_1
 10
5.0452
 20
278.9271
  0
VERTEX
  8
LAYER_1
 10
5.0014
 20
278.7316
  0
VERTEX
  8
LAYER_1
 10
4.967
 20
278.5322
  0
VERTEX
  8
LAYER_1
 10
4.9421
 20
278.3292
  0
VERTEX
  8
LAYER_1
 10
4.927
 20
278.1228
  0
VERTEX
  8
LAYER_1
 10
4.9219
 20
277.9132
  0
VERTEX
  8
LAYER_1
 10
4.9219
 20
189.9133
  0
VERTEX
  8
LAYER_1
 10
4.9333
 20
189.6003
  0
VERTEX
  8
LAYER_1
 10
4.9421
 20
189.4976
  0
VERTEX
  8
LAYER_1
 10
4.967
 20
189.2947
  0
VERTEX
  8
LAYER_1
 10
5.0015
 20
189.0954
  0
VERTEX
  8
LAYER_1
 10
5.0453
 20
188.9
  0
VERTEX
  8
LAYER_1
 10
5.0982
 20
188.7086
  0
VERTEX
  8
LAYER_1
 10
5.16
 20
188.5216
  0
VERTEX
  8
LAYER_1
 10
5.2305
 20
188.339
  0
VERTEX
  8
LAYER_1
 10
5.3093
 20
188.1613
  0
VERTEX
  8
LAYER_1
 10
5.3964
 20
187.9885
  0
VERTEX
  8
LAYER_1
 10
5.4914
 20
187.821
  0
VERTEX
  8
LAYER_1
 10
5.5942
 20
187.6589
  0
VERTEX
  8
LAYER_1
 10
5.7045
 20
187.5024
  0
VERTEX
  8
LAYER_1
 10
5.822
 20
187.3519
  0
VERTEX
  8
LAYER_1
 10
5.9466
 20
187.2075
  0
VERTEX
  8
LAYER_1
 10
6.0781
 20
187.0695
  0
VERTEX
  8
LAYER_1
 10
6.2161
 20
186.9381
  0
VERTEX
  8
LAYER_1
 10
6.3605
 20
186.8135
  0
VERTEX
  8
LAYER_1
 10
6.511
 20
186.6959
  0
VERTEX
  8
LAYER_1
 10
6.6674
 20
186.5856
  0
VERTEX
  8
LAYER_1
 10
6.8295
 20
186.4829
  0
VERTEX
  8
LAYER_1
 10
6.9971
 20
186.3878
  0
VERTEX
  8
LAYER_1
 10
7.1698
 20
186.3008
  0
VERTEX
  8
LAYER_1
 10
7.3476
 20
186.2219
  0
VERTEX
  8
LAYER_1
 10
7.5301
 20
186.1514
  0
VERTEX
  8
LAYER_1
 10
7.7172
 20
186.0896
  0
VERTEX
  8
LAYER_1
 10
7.9085
 20
186.0367
  0
VERTEX
  8
LAYER_1
 10
8.104
 20
185.9929
  0
VERTEX
  8
LAYER_1
 10
8.3033
 20
185.9584
  0
VERTEX
  8
LAYER_1
 10
8.5062
 20
185.9335
  0
VERTEX
  8
LAYER_1
 10
8.7124
 20
185.9184
  0
VERTEX
  8
LAYER_1
 10
8.9219
 20
185.9133
  0
VERTEX
  8
LAYER_1
 10
57.9218
 20
185.9131
  0
VERTEX
  8
LAYER_1
 10
58.2335
 20
185.9246
  0
VERTEX
  8
LAYER_1
 10
58.3358
 20
185.9335
  0
VERTEX
  8
LAYER_1
 10
58.538
 20
185.9587
  0
VERTEX
  8
LAYER_1
 10
58.7367
 20
185.9936
  0
VERTEX
  8
LAYER_1
 10
58.9316
 20
186.0378
  0
VERTEX
  8
LAYER_1
 10
59.1226
 20
186.0912
  0
VERTEX
  8
LAYER_1
 10
59.3093
 20
186.1536
  0
VERTEX
  8
LAYER_1
 10
59.4916
 20
186.2246
  0
VERTEX
  8
LAYER_1
 10
59.6692
 20
186.3042
  0
VERTEX
  8
LAYER_1
 10
59.8419
 20
186.3919
  0
VERTEX
  8
LAYER_1
 10
60.0095
 20
186.4876
  0
VERTEX
  8
LAYER_1
 10
60.1716
 20
186.591
  0
VERTEX
  8
LAYER_1
 10
60.3282
 20
186.7019
  0
VERTEX
  8
LAYER_1
 10
60.4788
 20
186.8201
  0
VERTEX
  8
LAYER_1
 10
60.6234
 20
186.9453
  0
VERTEX
  8
LAYER_1
 10
60.7617
 20
187.0772
  0
VERTEX
  8
LAYER_1
 10
60.8933
 20
187.2157
  0
VERTEX
  8
LAYER_1
 10
61.0182
 20
187.3605
  0
VERTEX
  8
LAYER_1
 10
61.1361
 20
187.5113
  0
VERTEX
  8
LAYER_1
 10
61.2467
 20
187.6679
  0
VERTEX
  8
LAYER_1
 10
61.3498
 20
187.8301
  0
VERTEX
  8
LAYER_1
 10
61.4452
 20
187.9977
  0
VERTEX
  8
LAYER_1
 10
61.5326
 20
188.1703
  0
VERTEX
  8
LAYER_1
 10
61.6117
 20
188.3477
  0
VERTEX
  8
LAYER_1
 10
61.6825
 20
188.5298
  0
VERTEX
  8
LAYER_1
 10
61.7446
 20
188.7162
  0
VERTEX
  8
LAYER_1
 10
61.7978
 20
188.9068
  0
VERTEX
  8
LAYER_1
 10
61.8418
 20
189.1013
  0
VERTEX
  8
LAYER_1
 10
61.8764
 20
189.2994
  0
VERTEX
  8
LAYER_1
 10
61.9015
 20
189.5009
  0
VERTEX
  8
LAYER_1
 10
61.9167
 20
189.7055
  0
VERTEX
  8
LAYER_1
 10
61.9218
 20
189.9131
  0
SEQEND
  0
POLYLINE
  8
LAYER_1
 40
0.0353
 41
0.0353
 66
1
 10
0
 20
0
 30
0
  0
VERTEX
  8
LAYER_1
 10
61.9218
 20
189.9131
  0
VERTEX
  8
LAYER_1
 10
61.9218
 20
230.4674
  0
VERTEX
  8
LAYER_1
 10
61.9218
 20
230.4674
  0
SEQEND
  0
ARC
  8
LAYER_1
 10
64.9593
 20
230.4669
 40
3.0375
 50
89.99106985
 51
179.9900673
  0
POLYLINE
  8
LAYER_1
 40
0.0353
 41
0.0353
 66
1
 10
0
 20
0
 30
0
  0
VERTEX
  8
LAYER_1
 10
64.9598
 20
233.5044
  0
VERTEX
  8
LAYER_1
 10
92.1758
 20
233.5044
  0
SEQEND
  0
ENDBLK
  0
BLOCK
  8
LAYER_1
  2
AIGNBL01010002
 70
64
 10
0
 20
0
 30
0
  3
AIGNBL01010002
  0
ENDBLK
  0
BLOCK
  8
LAYER_1
  2
AIGNBL01010003
 70
64
 10
0
 20
0
 30
0
  3
AIGNBL01010003
  0
INSERT
  8
LAYER_1
  2
AIGNBL01020004
 10
0
 20
0
 30
0
  0
POLYLINE
  8
LAYER_1
 40
0.0317
 41
0.0317
 66
1
 10
0
 20
0
 30
0
  0
VERTEX
  8
LAYER_1
 10
8.2953
 20
202.8361
  0
VERTEX
  8
LAYER_1
 10
21.548
 20
202.8361
  0
VERTEX
  8
LAYER_1
 10
21.548
 20
202.8361
  0
SEQEND
  0
ARC
  8
LAYER_1
 10
21.548
 20
202.5394
 40
0.2967
 50
0.0029050361
 51
89.99709495
  0
POLYLINE
  8
LAYER_1
 40
0.0317
 41
0.0317
 66
1
 10
0
 20
0
 30
0
  0
VERTEX
  8
LAYER_1
 10
21.8447
 20
202.5394
  0
VERTEX
  8
LAYER_1
 10
21.8447
 20
189.2867
  0
VERTEX
  8
LAYER_1
 10
21.8447
 20
189.2867
  0
SEQEND
  0
ARC
  8
LAYER_1
 10
21.548
 20
189.2867
 40
0.2967
 50
270.0009419
 51
359.9990581
  0
POLYLINE
  8
LAYER_1
 40
0.0317
 41
0.0317
 66
1
 10
0
 20
0
 30
0
  0
VERTEX
  8
LAYER_1
 10
21.548
 20
188.99
  0
VERTEX
  8
LAYER_1
 10
8.2953
 20
188.99
  0
VERTEX
  8
LAYER_1
 10
8.2953
 20
188.99
  0
SEQEND
  0
ARC
  8
LAYER_1
 10
8.2953
 20
189.2867
 40
0.2967
 50
179.9976357
 51
270.0023643
  0
POLYLINE
  8
LAYER_1
 40
0.0317
 41
0.0317
 66
1
 10
0
 20
0
 30
0
  0
VERTEX
  8
LAYER_1
 10
7.9986
 20
189.2867
  0
VERTEX
  8
LAYER_1
 10
7.9986
 20
202.5394
  0
VERTEX
  8
LAYER_1
 10
7.9986
 20
202.5394
  0
SEQEND
  0
ARC
  8
LAYER_1
 10
8.2953
 20
202.5394
 40
0.2967
 50
89.99959928
 51
180.0004007
  0
POLYLINE
  8
LAYER_1
 40
0.0317
 41
0.0317
 66
1
 10
0
 20
0
 30
0
  0
VERTEX
  8
LAYER_1
 10
8.2953
 20
202.8361
  0
SEQEND
  0
POLYLINE
  8
LAYER_1
 40
0.0317
 41
0.0317
 66
1
 10
0
 20
0
 30
0
  0
VERTEX
  8
LAYER_1
 10
27.2953
 20
202.8361
  0
VERTEX
  8
LAYER_1
 10
40.548
 20
202.8361
  0
VERTEX
  8
LAYER_1
 10
40.548
 20
202.8361
  0
SEQEND
  0
ARC
  8
LAYER_1
 10
40.548
 20
202.5394
 40
0.2967
 50
0.003744908025
 51
89.99625508
  0
POLYLINE
  8
LAYER_1
 40
0.0317
 41
0.0317
 66
1
 10
0
 20
0
 30
0
  0
VERTEX
  8
LAYER_1
 10
40.8447
 20
202.5394
  0
VERTEX
  8
LAYER_1
 10
40.8447
 20
189.2867
  0
VERTEX
  8
LAYER_1
 10
40.8447
 20
189.2867
  0
SEQEND
  0
ARC
  8
LAYER_1
 10
40.548
 20
189.2867
 40
0.2967
 50
270.0017819
 51
359.9982181
  0
POLYLINE
  8
LAYER_1
 40
0.0317
 41
0.0317
 66
1
 10
0
 20
0
 30
0
  0
VERTEX
  8
LAYER_1
 10
40.548
 20
188.99
  0
VERTEX
  8
LAYER_1
 10
27.2953
 20
188.99
  0
VERTEX
  8
LAYER_1
 10
27.2953
 20
188.99
  0
SEQEND
  0
ARC
  8
LAYER_1
 10
27.2953
 20
189.2867
 40
0.2967
 50
179.9967957
 51
270.0032043
  0
POLYLINE
  8
LAYER_1
 40
0.0317
 41
0.0317
 66
1
 10
0
 20
0
 30
0
  0
VERTEX
  8
LAYER_1
 10
26.9986
 20
189.2867
  0
VERTEX
  8
LAYER_1
 10
26.9986
 20
202.5394
  0
VERTEX
  8
LAYER_1
 10
26.9986
 20
202.5394
  0
SEQEND
  0
ARC
  8
LAYER_1
 10
27.2953
 20
202.5394
 40
0.2967
 50
89.99875941
 51
180.0012406
  0
POLYLINE
  8
LAYER_1
 40
0.0317
 41
0.0317
 66
1
 10
0
 20
0
 30
0
  0
VERTEX
  8
LAYER_1
 10
27.2953
 20
202.8361
  0
SEQEND
  0
POLYLINE
  8
LAYER_1
 40
0.0317
 41
0.0317
 66
1
 10
0
 20
0
 30
0
  0
VERTEX
  8
LAYER_1
 10
46.2953
 20
202.8361
  0
VERTEX
  8
LAYER_1
 10
59.548
 20
202.8361
  0
VERTEX
  8
LAYER_1
 10
59.548
 20
202.8361
  0
SEQEND
  0
ARC
  8
LAYER_1
 10
59.548
 20
202.5394
 40
0.2967
 50
0.003848173585
 51
89.99615181
  0
POLYLINE
  8
LAYER_1
 40
0.0317
 41
0.0317
 66
1
 10
0
 20
0
 30
0
  0
VERTEX
  8
LAYER_1
 10
59.8447
 20
202.5394
  0
VERTEX
  8
LAYER_1
 10
59.8447
 20
189.2867
  0
VERTEX
  8
LAYER_1
 10
59.8447
 20
189.2867
  0
SEQEND
  0
ARC
  8
LAYER_1
 10
59.548
 20
189.2867
 40
0.2967
 50
270.0018852
 51
359.9981148
  0
POLYLINE
  8
LAYER_1
 40
0.0317
 41
0.0317
 66
1
 10
0
 20
0
 30
0
  0
VERTEX
  8
LAYER_1
 10
59.548
 20
188.99
  0
VERTEX
  8
LAYER_1
 10
46.2953
 20
188.99
  0
VERTEX
  8
LAYER_1
 10
46.2953
 20
188.99
  0
SEQEND
  0
ARC
  8
LAYER_1
 10
46.2953
 20
189.2867
 40
0.2967
 50
179.9968766
 51
270.0031234
  0
POLYLINE
  8
LAYER_1
 40
0.0317
 41
0.0317
 66
1
 10
0
 20
0
 30
0
  0
VERTEX
  8
LAYER_1
 10
45.9986
 20
189.2867
  0
VERTEX
  8
LAYER_1
 10
45.9986
 20
202.5394
  0
VERTEX
  8
LAYER_1
 10
45.9986
 20
202.5394
  0
SEQEND
  0
ARC
  8
LAYER_1
 10
46.2953
 20
202.5394
 40
0.2967
 50
89.9988403
 51
180.0011597
  0
POLYLINE
  8
LAYER_1
 40
0.0317
 41
0.0317
 66
1
 10
0
 20
0
 30
0
  0
VERTEX
  8
LAYER_1
 10
46.2953
 20
202.8361
  0
SEQEND
  0
POLYLINE
  8
LAYER_1
 40
0.0317
 41
0.0317
 66
1
 10
0
 20
0
 30
0
  0
VERTEX
  8
LAYER_1
 10
8.2953
 20
221.8361
  0
VERTEX
  8
LAYER_1
 10
21.548
 20
221.8361
  0
VERTEX
  8
LAYER_1
 10
21.548
 20
221.8361
  0
SEQEND
  0
ARC
  8
LAYER_1
 10
21.548
 20
221.5394
 40
0.2967
 50
0.0007986219519
 51
89.99920137
  0
POLYLINE
  8
LAYER_1
 40
0.0317
 41
0.0317
 66
1
 10
0
 20
0
 30
0
  0
VERTEX
  8
LAYER_1
 10
21.8447
 20
221.5394
  0
VERTEX
  8
LAYER_1
 10
21.8447
 20
208.2867
  0
VERTEX
  8
LAYER_1
 10
21.8447
 20
208.2867
  0
SEQEND
  0
ARC
  8
LAYER_1
 10
21.548
 20
208.2867
 40
0.2967
 50
270.0030484
 51
359.9969517
  0
POLYLINE
  8
LAYER_1
 40
0.0317
 41
0.0317
 66
1
 10
0
 20
0
 30
0
  0
VERTEX
  8
LAYER_1
 10
21.548
 20
207.99
  0
VERTEX
  8
LAYER_1
 10
8.2953
 20
207.99
  0
VERTEX
  8
LAYER_1
 10
8.2953
 20
207.99
  0
SEQEND
  0
ARC
  8
LAYER_1
 10
8.2953
 20
208.2867
 40
0.2967
 50
179.9997426
 51
270.0002574
  0
POLYLINE
  8
LAYER_1
 40
0.0317
 41
0.0317
 66
1
 10
0
 20
0
 30
0
  0
VERTEX
  8
LAYER_1
 10
7.9986
 20
208.2867
  0
VERTEX
  8
LAYER_1
 10
7.9986
 20
221.5394
  0
VERTEX
  8
LAYER_1
 10
7.9986
 20
221.5394
  0
SEQEND
  0
ARC
  8
LAYER_1
 10
8.2953
 20
221.5394
 40
0.2967
 50
89.99749236
 51
180.0025077
  0
POLYLINE
  8
LAYER_1
 40
0.0317
 41
0.0317
 66
1
 10
0
 20
0
 30
0
  0
VERTEX
  8
LAYER_1
 10
8.2953
 20
221.8361
  0
SEQEND
  0
POLYLINE
  8
LAYER_1
 40
0.0317
 41
0.0317
 66
1
 10
0
 20
0
 30
0
  0
VERTEX
  8
LAYER_1
 10
27.2953
 20
221.8361
  0
VERTEX
  8
LAYER_1
 10
40.548
 20
221.8361
  0
VERTEX
  8
LAYER_1
 10
40.548
 20
221.8361
  0
SEQEND
  0
ARC
  8
LAYER_1
 10
40.548
 20
221.5394
 40
0.2967
 50
0.001638617399
 51
89.99836137
  0
POLYLINE
  8
LAYER_1
 40
0.0317
 41
0.0317
 66
1
 10
0
 20
0
 30
0
  0
VERTEX
  8
LAYER_1
 10
40.8447
 20
221.5394
  0
VERTEX
  8
LAYER_1
 10
40.8447
 20
208.2867
  0
VERTEX
  8
LAYER_1
 10
40.8447
 20
208.2867
  0
SEQEND
  0
ARC
  8
LAYER_1
 10
40.548
 20
208.2867
 40
0.2967
 50
270.0038882
 51
359.9961118
  0
POLYLINE
  8
LAYER_1
 40
0.0317
 41
0.0317
 66
1
 10
0
 20
0
 30
0
  0
VERTEX
  8
LAYER_1
 10
40.548
 20
207.99
  0
VERTEX
  8
LAYER_1
 10
27.2953
 20
207.99
  0
VERTEX
  8
LAYER_1
 10
27.2953
 20
207.99
  0
SEQEND
  0
ARC
  8
LAYER_1
 10
27.2953
 20
208.2867
 40
0.2967
 50
179.9989028
 51
270.0010972
  0
POLYLINE
  8
LAYER_1
 40
0.0317
 41
0.0317
 66
1
 10
0
 20
0
 30
0
  0
VERTEX
  8
LAYER_1
 10
26.9986
 20
208.2867
  0
VERTEX
  8
LAYER_1
 10
26.9986
 20
221.5394
  0
VERTEX
  8
LAYER_1
 10
26.9986
 20
221.5394
  0
SEQEND
  0
ARC
  8
LAYER_1
 10
27.2953
 20
221.5394
 40
0.2967
 50
89.99665236
 51
180.0033476
  0
POLYLINE
  8
LAYER_1
 40
0.0317
 41
0.0317
 66
1
 10
0
 20
0
 30
0
  0
VERTEX
  8
LAYER_1
 10
27.2953
 20
221.8361
  0
SEQEND
  0
POLYLINE
  8
LAYER_1
 40
0.0317
 41
0.0317
 66
1
 10
0
 20
0
 30
0
  0
VERTEX
  8
LAYER_1
 10
46.2953
 20
221.8361
  0
VERTEX
  8
LAYER_1
 10
59.548
 20
221.8361
  0
VERTEX
  8
LAYER_1
 10
59.548
 20
221.8361
  0
SEQEND
  0
ARC
  8
LAYER_1
 10
59.548
 20
221.5394
 40
0.2967
 50
0.001741898149
 51
89.99825809
  0
POLYLINE
  8
LAYER_1
 40
0.0317
 41
0.0317
 66
1
 10
0
 20
0
 30
0
  0
VERTEX
  8
LAYER_1
 10
59.8447
 20
221.5394
  0
VERTEX
  8
LAYER_1
 10
59.8447
 20
208.2867
  0
VERTEX
  8
LAYER_1
 10
59.8447
 20
208.2867
  0
SEQEND
  0
ARC
  8
LAYER_1
 10
59.548
 20
208.2867
 40
0.2967
 50
270.0039915
 51
359.9960085
  0
POLYLINE
  8
LAYER_1
 40
0.0317
 41
0.0317
 66
1
 10
0
 20
0
 30
0
  0
VERTEX
  8
LAYER_1
 10
59.548
 20
207.99
  0
VERTEX
  8
LAYER_1
 10
46.2953
 20
207.99
  0
VERTEX
  8
LAYER_1
 10
46.2953
 20
207.99
  0
SEQEND
  0
ARC
  8
LAYER_1
 10
46.2953
 20
208.2867
 40
0.2967
 50
179.9989836
 51
270.0010164
  0
POLYLINE
  8
LAYER_1
 40
0.0317
 41
0.0317
 66
1
 10
0
 20
0
 30
0
  0
VERTEX
  8
LAYER_1
 10
45.9986
 20
208.2867
  0
VERTEX
  8
LAYER_1
 10
45.9986
 20
221.5394
  0
VERTEX
  8
LAYER_1
 10
45.9986
 20
221.5394
  0
SEQEND
  0
ARC
  8
LAYER_1
 10
46.2953
 20
221.5394
 40
0.2967
 50
89.99673326
 51
180.0032667
  0
POLYLINE
  8
LAYER_1
 40
0.0317
 41
0.0317
 66
1
 10
0
 20
0
 30
0
  0
VERTEX
  8
LAYER_1
 10
46.2953
 20
221.8361
  0
SEQEND
  0
POLYLINE
  8
LAYER_1
 40
0.0317
 41
0.0317
 66
1
 10
0
 20
0
 30
0
  0
VERTEX
  8
LAYER_1
 10
8.2953
 20
240.8361
  0
VERTEX
  8
LAYER_1
 10
21.548
 20
240.8361
  0
VERTEX
  8
LAYER_1
 10
21.548
 20
240.8361
  0
SEQEND
  0
ARC
  8
LAYER_1
 10
21.548
 20
240.5394
 40
0.2967
 50
0.00127015949
 51
89.99872983
  0
POLYLINE
  8
LAYER_1
 40
0.0317
 41
0.0317
 66
1
 10
0
 20
0
 30
0
  0
VERTEX
  8
LAYER_1
 10
21.8447
 20
240.5394
  0
VERTEX
  8
LAYER_1
 10
21.8447
 20
227.2867
  0
VERTEX
  8
LAYER_1
 10
21.8447
 20
227.2867
  0
SEQEND
  0
ARC
  8
LAYER_1
 10
21.548
 20
227.2867
 40
0.2967
 50
270.0029451
 51
359.9970549
  0
POLYLINE
  8
LAYER_1
 40
0.0317
 41
0.0317
 66
1
 10
0
 20
0
 30
0
  0
VERTEX
  8
LAYER_1
 10
21.548
 20
226.99
  0
VERTEX
  8
LAYER_1
 10
8.2953
 20
226.99
  0
VERTEX
  8
LAYER_1
 10
8.2953
 20
226.99
  0
SEQEND
  0
ARC
  8
LAYER_1
 10
8.2953
 20
227.2867
 40
0.2967
 50
179.9996393
 51
270.0003607
  0
POLYLINE
  8
LAYER_1
 40
0.0317
 41
0.0317
 66
1
 10
0
 20
0
 30
0
  0
VERTEX
  8
LAYER_1
 10
7.9986
 20
227.2867
  0
VERTEX
  8
LAYER_1
 10
7.9986
 20
240.5394
  0
VERTEX
  8
LAYER_1
 10
7.9986
 20
240.5394
  0
SEQEND
  0
ARC
  8
LAYER_1
 10
8.2953
 20
240.5394
 40
0.2967
 50
89.99796401
 51
180.002036
  0
POLYLINE
  8
LAYER_1
 40
0.0317
 41
0.0317
 66
1
 10
0
 20
0
 30
0
  0
VERTEX
  8
LAYER_1
 10
8.2953
 20
240.8361
  0
SEQEND
  0
POLYLINE
  8
LAYER_1
 40
0.0317
 41
0.0317
 66
1
 10
0
 20
0
 30
0
  0
VERTEX
  8
LAYER_1
 10
27.2953
 20
240.8361
  0
VERTEX
  8
LAYER_1
 10
40.548
 20
240.8361
  0
VERTEX
  8
LAYER_1
 10
40.548
 20
240.8361
  0
SEQEND
  0
ARC
  8
LAYER_1
 10
40.548
 20
240.5394
 40
0.2967
 50
0.002110127287
 51
89.99788986
  0
POLYLINE
  8
LAYER_1
 40
0.0317
 41
0.0317
 66
1
 10
0
 20
0
 30
0
  0
VERTEX
  8
LAYER_1
 10
40.8447
 20
240.5394
  0
VERTEX
  8
LAYER_1
 10
40.8447
 20
227.2867
  0
VERTEX
  8
LAYER_1
 10
40.8447
 20
227.2867
  0
SEQEND
  0
ARC
  8
LAYER_1
 10
40.548
 20
227.2867
 40
0.2967
 50
270.003785
 51
359.996215
  0
POLYLINE
  8
LAYER_1
 40
0.0317
 41
0.0317
 66
1
 10
0
 20
0
 30
0
  0
VERTEX
  8
LAYER_1
 10
40.548
 20
226.99
  0
VERTEX
  8
LAYER_1
 10
27.2953
 20
226.99
  0
VERTEX
  8
LAYER_1
 10
27.2953
 20
226.99
  0
SEQEND
  0
ARC
  8
LAYER_1
 10
27.2953
 20
227.2867
 40
0.2967
 50
179.9987995
 51
270.0012005
  0
POLYLINE
  8
LAYER_1
 40
0.0317
 41
0.0317
 66
1
 10
0
 20
0
 30
0
  0
VERTEX
  8
LAYER_1
 10
26.9986
 20
227.2867
  0
VERTEX
  8
LAYER_1
 10
26.9986
 20
240.5394
  0
VERTEX
  8
LAYER_1
 10
26.9986
 20
240.5394
  0
SEQEND
  0
ARC
  8
LAYER_1
 10
27.2953
 20
240.5394
 40
0.2967
 50
89.99712404
 51
180.002876
  0
POLYLINE
  8
LAYER_1
 40
0.0317
 41
0.0317
 66
1
 10
0
 20
0
 30
0
  0
VERTEX
  8
LAYER_1
 10
27.2953
 20
240.8361
  0
SEQEND
  0
POLYLINE
  8
LAYER_1
 40
0.0317
 41
0.0317
 66
1
 10
0
 20
0
 30
0
  0
VERTEX
  8
LAYER_1
 10
46.2953
 20
240.8361
  0
VERTEX
  8
LAYER_1
 10
59.548
 20
240.8361
  0
VERTEX
  8
LAYER_1
 10
59.548
 20
240.8361
  0
SEQEND
  0
ARC
  8
LAYER_1
 10
59.548
 20
240.5394
 40
0.2967
 50
0.002213404641
 51
89.99778658
  0
POLYLINE
  8
LAYER_1
 40
0.0317
 41
0.0317
 66
1
 10
0
 20
0
 30
0
  0
VERTEX
  8
LAYER_1
 10
59.8447
 20
240.5394
  0
VERTEX
  8
LAYER_1
 10
59.8447
 20
227.2867
  0
VERTEX
  8
LAYER_1
 10
59.8447
 20
227.2867
  0
SEQEND
  0
ARC
  8
LAYER_1
 10
59.548
 20
227.2867
 40
0.2967
 50
270.0038882
 51
359.9961118
  0
POLYLINE
  8
LAYER_1
 40
0.0317
 41
0.0317
 66
1
 10
0
 20
0
 30
0
  0
VERTEX
  8
LAYER_1
 10
59.548
 20
226.99
  0
VERTEX
  8
LAYER_1
 10
46.2953
 20
226.99
  0
VERTEX
  8
LAYER_1
 10
46.2953
 20
226.99
  0
SEQEND
  0
ARC
  8
LAYER_1
 10
46.2953
 20
227.2867
 40
0.2967
 50
179.9988803
 51
270.0011196
  0
POLYLINE
  8
LAYER_1
 40
0.0317
 41
0.0317
 66
1
 10
0
 20
0
 30
0
  0
VERTEX
  8
LAYER_1
 10
45.9986
 20
227.2867
  0
VERTEX
  8
LAYER_1
 10
45.9986
 20
240.5394
  0
VERTEX
  8
LAYER_1
 10
45.9986
 20
240.5394
  0
SEQEND
  0
ARC
  8
LAYER_1
 10
46.2953
 20
240.5394
 40
0.2967
 50
89.99720493
 51
180.0027951
  0
POLYLINE
  8
LAYER_1
 40
0.0317
 41
0.0317
 66
1
 10
0
 20
0
 30
0
  0
VERTEX
  8
LAYER_1
 10
46.2953
 20
240.8361
  0
SEQEND
  0
POLYLINE
  8
LAYER_1
 40
0.0317
 41
0.0317
 66
1
 10
0
 20
0
 30
0
  0
VERTEX
  8
LAYER_1
 10
8.2953
 20
259.8361
  0
VERTEX
  8
LAYER_1
 10
21.548
 20
259.8361
  0
VERTEX
  8
LAYER_1
 10
21.548
 20
259.8361
  0
SEQEND
  0
ARC
  8
LAYER_1
 10
21.548
 20
259.5394
 40
0.2967
 50
359.9999003
 51
90.00009969
  0
POLYLINE
  8
LAYER_1
 40
0.0317
 41
0.0317
 66
1
 10
0
 20
0
 30
0
  0
VERTEX
  8
LAYER_1
 10
21.8447
 20
259.5394
  0
VERTEX
  8
LAYER_1
 10
21.8447
 20
246.2867
  0
VERTEX
  8
LAYER_1
 10
21.8447
 20
246.2867
  0
SEQEND
  0
ARC
  8
LAYER_1
 10
21.548
 20
246.2867
 40
0.2967
 50
270.0046832
 51
359.9953168
  0
POLYLINE
  8
LAYER_1
 40
0.0317
 41
0.0317
 66
1
 10
0
 20
0
 30
0
  0
VERTEX
  8
LAYER_1
 10
21.548
 20
245.99
  0
VERTEX
  8
LAYER_1
 10
8.2953
 20
245.99
  0
VERTEX
  8
LAYER_1
 10
8.2953
 20
245.99
  0
SEQEND
  0
ARC
  8
LAYER_1
 10
8.2953
 20
246.2867
 40
0.2967
 50
180.0013779
 51
269.9986221
  0
POLYLINE
  8
LAYER_1
 40
0.0317
 41
0.0317
 66
1
 10
0
 20
0
 30
0
  0
VERTEX
  8
LAYER_1
 10
7.9986
 20
246.2867
  0
VERTEX
  8
LAYER_1
 10
7.9986
 20
259.5394
  0
VERTEX
  8
LAYER_1
 10
7.9986
 20
259.5394
  0
SEQEND
  0
ARC
  8
LAYER_1
 10
8.2953
 20
259.5394
 40
0.2967
 50
89.99659383
 51
180.0034062
  0
POLYLINE
  8
LAYER_1
 40
0.0317
 41
0.0317
 66
1
 10
0
 20
0
 30
0
  0
VERTEX
  8
LAYER_1
 10
8.2953
 20
259.8361
  0
SEQEND
  0
POLYLINE
  8
LAYER_1
 40
0.0317
 41
0.0317
 66
1
 10
0
 20
0
 30
0
  0
VERTEX
  8
LAYER_1
 10
27.2953
 20
259.8361
  0
VERTEX
  8
LAYER_1
 10
40.548
 20
259.8361
  0
VERTEX
  8
LAYER_1
 10
40.548
 20
259.8361
  0
SEQEND
  0
ARC
  8
LAYER_1
 10
40.548
 20
259.5394
 40
0.2967
 50
0.0007403511161
 51
89.99925964
  0
POLYLINE
  8
LAYER_1
 40
0.0317
 41
0.0317
 66
1
 10
0
 20
0
 30
0
  0
VERTEX
  8
LAYER_1
 10
40.8447
 20
259.5394
  0
VERTEX
  8
LAYER_1
 10
40.8447
 20
246.2867
  0
VERTEX
  8
LAYER_1
 10
40.8447
 20
246.2867
  0
SEQEND
  0
ARC
  8
LAYER_1
 10
40.548
 20
246.2867
 40
0.2967
 50
270.005523
 51
359.994477
  0
POLYLINE
  8
LAYER_1
 40
0.0317
 41
0.0317
 66
1
 10
0
 20
0
 30
0
  0
VERTEX
  8
LAYER_1
 10
40.548
 20
245.99
  0
VERTEX
  8
LAYER_1
 10
27.2953
 20
245.99
  0
VERTEX
  8
LAYER_1
 10
27.2953
 20
245.99
  0
SEQEND
  0
ARC
  8
LAYER_1
 10
27.2953
 20
246.2867
 40
0.2967
 50
180.0005381
 51
269.9994619
  0
POLYLINE
  8
LAYER_1
 40
0.0317
 41
0.0317
 66
1
 10
0
 20
0
 30
0
  0
VERTEX
  8
LAYER_1
 10
26.9986
 20
246.2867
  0
VERTEX
  8
LAYER_1
 10
26.9986
 20
259.5394
  0
VERTEX
  8
LAYER_1
 10
26.9986
 20
259.5394
  0
SEQEND
  0
ARC
  8
LAYER_1
 10
27.2953
 20
259.5394
 40
0.2967
 50
89.99575379
 51
180.0042462
  0
POLYLINE
  8
LAYER_1
 40
0.0317
 41
0.0317
 66
1
 10
0
 20
0
 30
0
  0
VERTEX
  8
LAYER_1
 10
27.2953
 20
259.8361
  0
SEQEND
  0
POLYLINE
  8
LAYER_1
 40
0.0317
 41
0.0317
 66
1
 10
0
 20
0
 30
0
  0
VERTEX
  8
LAYER_1
 10
46.2953
 20
259.8361
  0
VERTEX
  8
LAYER_1
 10
59.548
 20
259.8361
  0
VERTEX
  8
LAYER_1
 10
59.548
 20
259.8361
  0
SEQEND
  0
ARC
  8
LAYER_1
 10
59.548
 20
259.5394
 40
0.2967
 50
0.0008436383426
 51
89.99915635
  0
POLYLINE
  8
LAYER_1
 40
0.0317
 41
0.0317
 66
1
 10
0
 20
0
 30
0
  0
VERTEX
  8
LAYER_1
 10
59.8447
 20
259.5394
  0
VERTEX
  8
LAYER_1
 10
59.8447
 20
246.2867
  0
VERTEX
  8
LAYER_1
 10
59.8447
 20
246.2867
  0
SEQEND
  0
ARC
  8
LAYER_1
 10
59.548
 20
246.2867
 40
0.2967
 50
270.0056263
 51
359.9943738
  0
POLYLINE
  8
LAYER_1
 40
0.0317
 41
0.0317
 66
1
 10
0
 20
0
 30
0
  0
VERTEX
  8
LAYER_1
 10
59.548
 20
245.99
  0
VERTEX
  8
LAYER_1
 10
46.2953
 20
245.99
  0
VERTEX
  8
LAYER_1
 10
46.2953
 20
245.99
  0
SEQEND
  0
ARC
  8
LAYER_1
 10
46.2953
 20
246.2867
 40
0.2967
 50
180.000619
 51
269.999381
  0
POLYLINE
  8
LAYER_1
 40
0.0317
 41
0.0317
 66
1
 10
0
 20
0
 30
0
  0
VERTEX
  8
LAYER_1
 10
45.9986
 20
246.2867
  0
VERTEX
  8
LAYER_1
 10
45.9986
 20
259.5394
  0
VERTEX
  8
LAYER_1
 10
45.9986
 20
259.5394
  0
SEQEND
  0
ARC
  8
LAYER_1
 10
46.2953
 20
259.5394
 40
0.2967
 50
89.99583469
 51
180.0041653
  0
POLYLINE
  8
LAYER_1
 40
0.0317
 41
0.0317
 66
1
 10
0
 20
0
 30
0
  0
VERTEX
  8
LAYER_1
 10
46.2953
 20
259.8361
  0
SEQEND
  0
POLYLINE
  8
LAYER_1
 40
0.0317
 41
0.0317
 66
1
 10
0
 20
0
 30
0
  0
VERTEX
  8
LAYER_1
 10
8.2953
 20
278.8361
  0
VERTEX
  8
LAYER_1
 10
21.548
 20
278.8361
  0
VERTEX
  8
LAYER_1
 10
21.548
 20
278.8361
  0
SEQEND
  0
ARC
  8
LAYER_1
 10
21.548
 20
278.5394
 40
0.2967
 50
0.002949792231
 51
89.9970502
  0
POLYLINE
  8
LAYER_1
 40
0.0317
 41
0.0317
 66
1
 10
0
 20
0
 30
0
  0
VERTEX
  8
LAYER_1
 10
21.8447
 20
278.5394
  0
VERTEX
  8
LAYER_1
 10
21.8447
 20
265.2867
  0
VERTEX
  8
LAYER_1
 10
21.8447
 20
265.2867
  0
SEQEND
  0
ARC
  8
LAYER_1
 10
21.548
 20
265.2867
 40
0.2967
 50
270.0014496
 51
359.9985504
  0
POLYLINE
  8
LAYER_1
 40
0.0317
 41
0.0317
 66
1
 10
0
 20
0
 30
0
  0
VERTEX
  8
LAYER_1
 10
21.548
 20
264.99
  0
VERTEX
  8
LAYER_1
 10
8.2953
 20
264.99
  0
VERTEX
  8
LAYER_1
 10
8.2953
 20
264.99
  0
SEQEND
  0
ARC
  8
LAYER_1
 10
8.2953
 20
265.2867
 40
0.2967
 50
179.9981435
 51
270.0018565
  0
POLYLINE
  8
LAYER_1
 40
0.0317
 41
0.0317
 66
1
 10
0
 20
0
 30
0
  0
VERTEX
  8
LAYER_1
 10
7.9986
 20
265.2867
  0
VERTEX
  8
LAYER_1
 10
7.9986
 20
278.5394
  0
VERTEX
  8
LAYER_1
 10
7.9986
 20
278.5394
  0
SEQEND
  0
ARC
  8
LAYER_1
 10
8.2953
 20
278.5394
 40
0.2967
 50
89.99964405
 51
180.000356
  0
POLYLINE
  8
LAYER_1
 40
0.0317
 41
0.0317
 66
1
 10
0
 20
0
 30
0
  0
VERTEX
  8
LAYER_1
 10
8.2953
 20
278.8361
  0
SEQEND
  0
POLYLINE
  8
LAYER_1
 40
0.0317
 41
0.0317
 66
1
 10
0
 20
0
 30
0
  0
VERTEX
  8
LAYER_1
 10
27.2953
 20
278.8361
  0
VERTEX
  8
LAYER_1
 10
40.548
 20
278.8361
  0
VERTEX
  8
LAYER_1
 10
40.548
 20
278.8361
  0
SEQEND
  0
ARC
  8
LAYER_1
 10
40.548
 20
278.5394
 40
0.2967
 50
0.003789661527
 51
89.99621033
  0
POLYLINE
  8
LAYER_1
 40
0.0317
 41
0.0317
 66
1
 10
0
 20
0
 30
0
  0
VERTEX
  8
LAYER_1
 10
40.8447
 20
278.5394
  0
VERTEX
  8
LAYER_1
 10
40.8447
 20
265.2867
  0
VERTEX
  8
LAYER_1
 10
40.8447
 20
265.2867
  0
SEQEND
  0
ARC
  8
LAYER_1
 10
40.548
 20
265.2867
 40
0.2967
 50
270.0022896
 51
359.9977104
  0
POLYLINE
  8
LAYER_1
 40
0.0317
 41
0.0317
 66
1
 10
0
 20
0
 30
0
  0
VERTEX
  8
LAYER_1
 10
40.548
 20
264.99
  0
VERTEX
  8
LAYER_1
 10
27.2953
 20
264.99
  0
VERTEX
  8
LAYER_1
 10
27.2953
 20
264.99
  0
SEQEND
  0
ARC
  8
LAYER_1
 10
27.2953
 20
265.2867
 40
0.2967
 50
179.9973035
 51
270.0026965
  0
POLYLINE
  8
LAYER_1
 40
0.0317
 41
0.0317
 66
1
 10
0
 20
0
 30
0
  0
VERTEX
  8
LAYER_1
 10
26.9986
 20
265.2867
  0
VERTEX
  8
LAYER_1
 10
26.9986
 20
278.5394
  0
VERTEX
  8
LAYER_1
 10
26.9986
 20
278.5394
  0
SEQEND
  0
ARC
  8
LAYER_1
 10
27.2953
 20
278.5394
 40
0.2967
 50
89.99880418
 51
180.0011958
  0
POLYLINE
  8
LAYER_1
 40
0.0317
 41
0.0317
 66
1
 10
0
 20
0
 30
0
  0
VERTEX
  8
LAYER_1
 10
27.2953
 20
278.8361
  0
SEQEND
  0
POLYLINE
  8
LAYER_1
 40
0.0317
 41
0.0317
 66
1
 10
0
 20
0
 30
0
  0
VERTEX
  8
LAYER_1
 10
46.2953
 20
278.8361
  0
VERTEX
  8
LAYER_1
 10
59.548
 20
278.8361
  0
VERTEX
  8
LAYER_1
 10
59.548
 20
278.8361
  0
SEQEND
  0
ARC
  8
LAYER_1
 10
59.548
 20
278.5394
 40
0.2967
 50
0.003892926771
 51
89.99610706
  0
POLYLINE
  8
LAYER_1
 40
0.0317
 41
0.0317
 66
1
 10
0
 20
0
 30
0
  0
VERTEX
  8
LAYER_1
 10
59.8447
 20
278.5394
  0
VERTEX
  8
LAYER_1
 10
59.8447
 20
265.2867
  0
VERTEX
  8
LAYER_1
 10
59.8447
 20
265.2867
  0
SEQEND
  0
ARC
  8
LAYER_1
 10
59.548
 20
265.2867
 40
0.2967
 50
270.0023928
 51
359.9976072
  0
POLYLINE
  8
LAYER_1
 40
0.0317
 41
0.0317
 66
1
 10
0
 20
0
 30
0
  0
VERTEX
  8
LAYER_1
 10
59.548
 20
264.99
  0
VERTEX
  8
LAYER_1
 10
46.2953
 20
264.99
  0
VERTEX
  8
LAYER_1
 10
46.2953
 20
264.99
  0
SEQEND
  0
ARC
  8
LAYER_1
 10
46.2953
 20
265.2867
 40
0.2967
 50
179.9973844
 51
270.0026156
  0
POLYLINE
  8
LAYER_1
 40
0.0317
 41
0.0317
 66
1
 10
0
 20
0
 30
0
  0
VERTEX
  8
LAYER_1
 10
45.9986
 20
265.2867
  0
VERTEX
  8
LAYER_1
 10
45.9986
 20
278.5394
  0
VERTEX
  8
LAYER_1
 10
45.9986
 20
278.5394
  0
SEQEND
  0
ARC
  8
LAYER_1
 10
46.2953
 20
278.5394
 40
0.2967
 50
89.99888507
 51
180.0011149
  0
POLYLINE
  8
LAYER_1
 40
0.0317
 41
0.0317
 66
1
 10
0
 20
0
 30
0
  0
VERTEX
  8
LAYER_1
 10
46.2953
 20
278.8361
  0
SEQEND
  0
CIRCLE
  8
LAYER_1
 10
43.4528
 20
243.4095
 40
1.1
  0
CIRCLE
  8
LAYER_1
 10
24.402
 20
262.4597
 40
1.1
  0
CIRCLE
  8
LAYER_1
 10
43.4528
 20
224.4434
 40
1.1
  0
CIRCLE
  8
LAYER_1
 10
24.402
 20
205.3941
 40
1.1
  0
CIRCLE
  8
LAYER_1
 10
86.9764
 20
278.9591
 40
1.1
  0
CIRCLE
  8
LAYER_1
 10
86.9764
 20
243.9132
 40
1.1
  0
ENDBLK
  0
ENDSEC
  0
SECTION
  2
ENTITIES
  0
INSERT
  8
LAYER_1
  2
AIGNBL01010002
 10
0
 20
0
 30
0
  0
INSERT
  8
LAYER_1
  2
AIGNBL01010003
 10
0
 20
0
 30
0
  0
ENDSEC
  0
EOF
