  0
SECTION
  2
HEADER
  9
$ACADVER
  1
AC1009
  9
$LUNITS
 70
2
  9
$LUPREC
 70
4
  9
$LTSCALE
 40
1.0
  9
$EXTMIN
 10
51.4144
 20
193.7531
 30
0
  9
$EXTMAX
 10
141.4144
 20
289.7531
 30
0
  0
ENDSEC
  0
SECTION
  2
TABLES
  0
TABLE
  2
LTYPE
 70
256
  0
ENDTAB
  0
TABLE
  2
LAYER
 70
1
  0
LAYER
  2
LAYER_1
 70
64
 62
7
  6
CONTINUOUS
  0
ENDTAB
  0
TABLE
  2
STYLE
 70
6
  0
STYLE
  2
STANDARD
 70
0
 40
0
 50
0
 71
0
 41
0
 42
0
  3
TXT
  4
BIGFONT
  0
ENDTAB
  0
ENDSEC
  0
SECTION
  2
BLOCKS
  0
BLOCK
  8
LAYER_1
  2
AIGNBL01010002
 70
64
 10
0
 20
0
 30
0
  3
AIGNBL01010002
  0
ENDBLK
  0
BLOCK
  8
LAYER_1
  2
AIGNBL01010003
 70
64
 10
0
 20
0
 30
0
  3
AIGNBL01010003
  0
POLYLINE
  8
LAYER_1
 40
0.0353
 41
0.0353
 66
1
 10
0
 20
0
 30
0
  0
VERTEX
  8
LAYER_1
 10
55.2012
 20
289.7531
  0
VERTEX
  8
LAYER_1
 10
137.6275
 20
289.7531
  0
VERTEX
  8
LAYER_1
 10
137.6275
 20
289.7531
  0
SEQEND
  0
ARC
  8
LAYER_1
 10
137.6275
 20
285.9662
 40
3.7869
 50
359.999684
 51
90.00031596
  0
POLYLINE
  8
LAYER_1
 40
0.0353
 41
0.0353
 66
1
 10
0
 20
0
 30
0
  0
VERTEX
  8
LAYER_1
 10
141.4144
 20
285.9662
  0
VERTEX
  8
LAYER_1
 10
141.4144
 20
197.5399
  0
VERTEX
  8
LAYER_1
 10
141.4144
 20
197.5399
  0
SEQEND
  0
ARC
  8
LAYER_1
 10
137.6276
 20
197.5399
 40
3.7868
 50
269.9991181
 51
359.9993689
  0
POLYLINE
  8
LAYER_1
 40
0.0353
 41
0.0353
 66
1
 10
0
 20
0
 30
0
  0
VERTEX
  8
LAYER_1
 10
137.6275
 20
193.7531
  0
VERTEX
  8
LAYER_1
 10
55.2012
 20
193.7531
  0
VERTEX
  8
LAYER_1
 10
55.2012
 20
193.7531
  0
SEQEND
  0
ARC
  8
LAYER_1
 10
55.2012
 20
197.5399
 40
3.7868
 50
180.000388
 51
269.999612
  0
POLYLINE
  8
LAYER_1
 40
0.0353
 41
0.0353
 66
1
 10
0
 20
0
 30
0
  0
VERTEX
  8
LAYER_1
 10
51.4144
 20
197.5399
  0
VERTEX
  8
LAYER_1
 10
51.4144
 20
285.9662
  0
VERTEX
  8
LAYER_1
 10
51.4144
 20
285.9662
  0
SEQEND
  0
ARC
  8
LAYER_1
 10
55.2013
 20
285.9662
 40
3.7869
 50
90.00095393
 51
180.0005591
  0
POLYLINE
  8
LAYER_1
 40
0.0353
 41
0.0353
 66
1
 10
0
 20
0
 30
0
  0
VERTEX
  8
LAYER_1
 10
55.2012
 20
289.7531
  0
SEQEND
  0
CIRCLE
  8
LAYER_1
 10
70.8827
 20
270.2741
 40
1.1
  0
CIRCLE
  8
LAYER_1
 10
89.9302
 20
251.231
 40
1.1
  0
CIRCLE
  8
LAYER_1
 10
89.9386
 20
232.2673
 40
1.1
  0
CIRCLE
  8
LAYER_1
 10
70.8819
 20
213.2223
 40
1.1
  0
CIRCLE
  8
LAYER_1
 10
123.9685
 20
205.7628
 40
1.1
  0
CIRCLE
  8
LAYER_1
 10
133.4563
 20
251.7382
 40
1.1
  0
CIRCLE
  8
LAYER_1
 10
133.4522
 20
286.7914
 40
1.1
  0
ENDBLK
  0
ENDSEC
  0
SECTION
  2
ENTITIES
  0
INSERT
  8
LAYER_1
  2
AIGNBL01010002
 10
0
 20
0
 30
0
  0
INSERT
  8
LAYER_1
  2
AIGNBL01010003
 10
0
 20
0
 30
0
  0
ENDSEC
  0
EOF
